<svg version="1.1" xmlns="http://www.w3.org/2000/svg" viewBox="0 0 915.5859375 359.99999999999994" width="915.5859375" height="359.99999999999994">
  <!-- svg-source:excalidraw -->
  
  <defs>
    <style class="style-fonts">
      @font-face {
        font-family: "Virgil";
        src: url("https://excalidraw.com/Virgil.woff2");
      }
      @font-face {
        font-family: "Cascadia";
        src: url("https://excalidraw.com/Cascadia.woff2");
      }
    </style>
    
  </defs>
  <rect x="0" y="0" width="915.5859375" height="359.99999999999994" fill="#ffffff"/><g stroke-linecap="round" transform="translate(449.9999999999999 10) rotate(0 50 20)"><path d="M0 0 C34.4 0, 68.8 0, 100 0 M0 0 C34.3 0, 68.6 0, 100 0 M100 0 C100 9.39, 100 18.79, 100 40 M100 0 C100 10.89, 100 21.78, 100 40 M100 40 C73.36 40, 46.72 40, 0 40 M100 40 C79.92 40, 59.84 40, 0 40 M0 40 C0 30.79, 0 21.58, 0 0 M0 40 C0 30.27, 0 20.54, 0 0" stroke="#1e1e1e" stroke-width="1" fill="none"/></g><g transform="translate(494.4384765624999 18.5) rotate(0 5.5615234375 11.5)"><text x="5.5615234375" y="0" font-family="Helvetica, Segoe UI Emoji" font-size="20px" fill="#1e1e1e" text-anchor="middle" style="white-space: pre;" direction="ltr" dominant-baseline="text-before-edge">a</text></g><g stroke-linecap="round" transform="translate(249.9999999999999 110) rotate(0 50 20)"><path d="M0 0 C22.76 0, 45.52 0, 100 0 M0 0 C20.74 0, 41.47 0, 100 0 M100 0 C100 15.16, 100 30.32, 100 40 M100 0 C100 8.9, 100 17.8, 100 40 M100 40 C69.08 40, 38.15 40, 0 40 M100 40 C76.36 40, 52.72 40, 0 40 M0 40 C0 26.59, 0 13.18, 0 0 M0 40 C0 30.47, 0 20.93, 0 0" stroke="#1e1e1e" stroke-width="1" fill="none"/></g><g transform="translate(294.4384765624999 118.5) rotate(0 5.5615234375 11.5)"><text x="5.5615234375" y="0" font-family="Helvetica, Segoe UI Emoji" font-size="20px" fill="#1e1e1e" text-anchor="middle" style="white-space: pre;" direction="ltr" dominant-baseline="text-before-edge">b</text></g><g stroke-linecap="round" transform="translate(649.9999999999999 110) rotate(0 50 20)"><path d="M0 0 C26.24 0, 52.47 0, 100 0 M0 0 C23.7 0, 47.4 0, 100 0 M100 0 C100 9.16, 100 18.31, 100 40 M100 0 C100 8.34, 100 16.68, 100 40 M100 40 C63.74 40, 27.48 40, 0 40 M100 40 C77.21 40, 54.42 40, 0 40 M0 40 C0 27.79, 0 15.58, 0 0 M0 40 C0 25.62, 0 11.23, 0 0" stroke="#1e1e1e" stroke-width="1" fill="none"/></g><g transform="translate(694.4384765624999 118.5) rotate(0 5.5615234375 11.5)"><text x="5.5615234375" y="0" font-family="Helvetica, Segoe UI Emoji" font-size="20px" fill="#1e1e1e" text-anchor="middle" style="white-space: pre;" direction="ltr" dominant-baseline="text-before-edge">b</text></g><g stroke-linecap="round" transform="translate(150 209.99999999999994) rotate(0 50 20)"><path d="M0 0 C32.64 0, 65.28 0, 100 0 M0 0 C30.38 0, 60.76 0, 100 0 M100 0 C100 14.51, 100 29.02, 100 40 M100 0 C100 8.08, 100 16.16, 100 40 M100 40 C69.54 40, 39.08 40, 0 40 M100 40 C75.28 40, 50.57 40, 0 40 M0 40 C0 27.25, 0 14.51, 0 0 M0 40 C0 24.84, 0 9.68, 0 0" stroke="#1e1e1e" stroke-width="1" fill="none"/></g><g transform="translate(195 218.49999999999994) rotate(0 5 11.5)"><text x="5" y="0" font-family="Helvetica, Segoe UI Emoji" font-size="20px" fill="#1e1e1e" text-anchor="middle" style="white-space: pre;" direction="ltr" dominant-baseline="text-before-edge">c</text></g><g stroke-linecap="round" transform="translate(349.9999999999999 209.99999999999994) rotate(0 50 20)"><path d="M0 0 C29.78 0, 59.55 0, 100 0 M0 0 C27.96 0, 55.92 0, 100 0 M100 0 C100 14.35, 100 28.69, 100 40 M100 0 C100 14.99, 100 29.98, 100 40 M100 40 C78.67 40, 57.33 40, 0 40 M100 40 C63.39 40, 26.78 40, 0 40 M0 40 C0 25.86, 0 11.72, 0 0 M0 40 C0 29.27, 0 18.54, 0 0" stroke="#1e1e1e" stroke-width="1" fill="none"/></g><g transform="translate(394.9999999999999 218.49999999999994) rotate(0 5 11.5)"><text x="5" y="0" font-family="Helvetica, Segoe UI Emoji" font-size="20px" fill="#1e1e1e" text-anchor="middle" style="white-space: pre;" direction="ltr" dominant-baseline="text-before-edge">c</text></g><g stroke-linecap="round" transform="translate(629.9999999999999 209.99999999999994) rotate(0 20 20)"><path d="M0 0 C0 0, 0 0, 0 0 M0 0 C0 0, 0 0, 0 0 M-0.26 6.4 C1.21 4.7, 2.69 3, 4.99 0.36 M-0.26 6.4 C1.63 4.22, 3.52 2.05, 4.99 0.36 M0.13 12.04 C2.49 9.33, 4.84 6.63, 10.63 -0.03 M0.13 12.04 C3.49 8.18, 6.85 4.32, 10.63 -0.03 M-0.13 18.44 C5.51 11.95, 11.16 5.46, 15.62 0.33 M-0.13 18.44 C5.34 12.15, 10.8 5.86, 15.62 0.33 M0.27 24.08 C7.36 15.92, 14.45 7.76, 21.26 -0.07 M0.27 24.08 C6.44 16.98, 12.62 9.87, 21.26 -0.07 M0 30.48 C8 21.29, 15.99 12.09, 26.25 0.29 M0 30.48 C8.54 20.66, 17.08 10.84, 26.25 0.29 M-0.26 36.88 C8.99 26.25, 18.23 15.61, 31.89 -0.1 M-0.26 36.88 C9.96 25.13, 20.17 13.38, 31.89 -0.1 M1.45 41.01 C8.67 32.71, 15.88 24.41, 36.88 0.26 M1.45 41.01 C10.68 30.39, 19.92 19.77, 36.88 0.26 M6.44 41.37 C15.39 31.08, 24.34 20.78, 41.21 1.37 M6.44 41.37 C15.34 31.12, 24.25 20.88, 41.21 1.37 M12.08 40.98 C22.13 29.42, 32.17 17.86, 41.6 7.01 M12.08 40.98 C21.49 30.15, 30.9 19.33, 41.6 7.01 M17.07 41.34 C22.7 34.86, 28.32 28.39, 41.34 13.41 M17.07 41.34 C26.17 30.86, 35.28 20.39, 41.34 13.41 M22.71 40.94 C30.04 32.51, 37.36 24.09, 41.08 19.81 M22.71 40.94 C27.58 35.34, 32.45 29.74, 41.08 19.81 M27.7 41.3 C33.14 35.04, 38.59 28.77, 41.47 25.45 M27.7 41.3 C32.38 35.91, 37.07 30.52, 41.47 25.45 M33.34 40.91 C35.41 38.52, 37.49 36.14, 41.21 31.85 M33.34 40.91 C35.43 38.5, 37.52 36.1, 41.21 31.85 M38.33 41.27 C39.42 40.01, 40.51 38.76, 41.61 37.49 M38.33 41.27 C39.04 40.45, 39.75 39.63, 41.61 37.49" stroke="#ffc9c9" stroke-width="0.5" fill="none"/><path d="M0 0 C10.19 0, 20.37 0, 40 0 M0 0 C9.45 0, 18.91 0, 40 0 M40 0 C40 15.79, 40 31.58, 40 40 M40 0 C40 11.95, 40 23.9, 40 40 M40 40 C25.32 40, 10.64 40, 0 40 M40 40 C29.74 40, 19.47 40, 0 40 M0 40 C0 24.48, 0 8.97, 0 0 M0 40 C0 24.02, 0 8.05, 0 0" stroke="#e03131" stroke-width="1" fill="none"/></g><g stroke-linecap="round" transform="translate(729.9999999999999 209.99999999999994) rotate(0 20 20)"><path d="M0 0 C0 0, 0 0, 0 0 M0 0 C0 0, 0 0, 0 0 M-0.26 6.4 C1.56 4.3, 3.38 2.21, 4.99 0.36 M-0.26 6.4 C1.24 4.67, 2.74 2.94, 4.99 0.36 M0.13 12.04 C3.37 8.32, 6.61 4.59, 10.63 -0.03 M0.13 12.04 C4.11 7.47, 8.08 2.9, 10.63 -0.03 M-0.13 18.44 C4.18 13.48, 8.5 8.52, 15.62 0.33 M-0.13 18.44 C3.73 14.01, 7.58 9.57, 15.62 0.33 M0.27 24.08 C7.82 15.39, 15.38 6.69, 21.26 -0.07 M0.27 24.08 C6.02 17.46, 11.77 10.84, 21.26 -0.07 M0 30.48 C9.74 19.28, 19.48 8.07, 26.25 0.29 M0 30.48 C9.67 19.36, 19.34 8.24, 26.25 0.29 M-0.26 36.88 C12.57 22.12, 25.4 7.37, 31.89 -0.1 M-0.26 36.88 C10.74 24.22, 21.75 11.57, 31.89 -0.1 M1.45 41.01 C9.35 31.92, 17.25 22.84, 36.88 0.26 M1.45 41.01 C12.88 27.87, 24.3 14.72, 36.88 0.26 M6.44 41.37 C17.21 28.98, 27.98 16.59, 41.21 1.37 M6.44 41.37 C18.56 27.42, 30.69 13.48, 41.21 1.37 M12.08 40.98 C18.39 33.71, 24.71 26.45, 41.6 7.01 M12.08 40.98 C23.09 28.32, 34.09 15.66, 41.6 7.01 M17.07 41.34 C26.21 30.81, 35.36 20.29, 41.34 13.41 M17.07 41.34 C23.36 34.1, 29.65 26.86, 41.34 13.41 M22.71 40.94 C28.74 34.01, 34.76 27.08, 41.08 19.81 M22.71 40.94 C29.78 32.81, 36.85 24.68, 41.08 19.81 M27.7 41.3 C31.62 36.79, 35.53 32.29, 41.47 25.45 M27.7 41.3 C30.99 37.51, 34.29 33.72, 41.47 25.45 M33.34 40.91 C36.1 37.74, 38.85 34.57, 41.21 31.85 M33.34 40.91 C35.11 38.88, 36.87 36.85, 41.21 31.85 M38.33 41.27 C39.37 40.07, 40.41 38.88, 41.61 37.49 M38.33 41.27 C39.16 40.31, 40 39.35, 41.61 37.49" stroke="#b2f2bb" stroke-width="0.5" fill="none"/><path d="M0 0 C9.39 0, 18.79 0, 40 0 M0 0 C10.89 0, 21.78 0, 40 0 M40 0 C40 10.66, 40 21.31, 40 40 M40 0 C40 8.03, 40 16.06, 40 40 M40 40 C30.79 40, 21.58 40, 0 40 M40 40 C30.27 40, 20.54 40, 0 40 M0 40 C0 31.76, 0 23.53, 0 0 M0 40 C0 30.94, 0 21.87, 0 0" stroke="#2f9e44" stroke-width="1" fill="none"/></g><g stroke-linecap="round" transform="translate(329.9999999999999 309.99999999999994) rotate(0 20 20)"><path d="M0 0 C0 0, 0 0, 0 0 M0 0 C0 0, 0 0, 0 0 M-0.26 6.4 C0.81 5.17, 1.88 3.94, 4.99 0.36 M-0.26 6.4 C1.84 3.98, 3.94 1.57, 4.99 0.36 M0.13 12.04 C4.04 7.54, 7.95 3.05, 10.63 -0.03 M0.13 12.04 C4.26 7.29, 8.39 2.55, 10.63 -0.03 M-0.13 18.44 C5.31 12.19, 10.74 5.93, 15.62 0.33 M-0.13 18.44 C4.25 13.4, 8.63 8.36, 15.62 0.33 M0.27 24.08 C6.6 16.8, 12.93 9.52, 21.26 -0.07 M0.27 24.08 C8.29 14.85, 16.32 5.61, 21.26 -0.07 M0 30.48 C8.1 21.17, 16.19 11.86, 26.25 0.29 M0 30.48 C9.06 20.07, 18.11 9.66, 26.25 0.29 M-0.26 36.88 C10.02 25.05, 20.3 13.23, 31.89 -0.1 M-0.26 36.88 C9.96 25.12, 20.18 13.37, 31.89 -0.1 M1.45 41.01 C14.83 25.62, 28.21 10.23, 36.88 0.26 M1.45 41.01 C14.4 26.11, 27.35 11.22, 36.88 0.26 M6.44 41.37 C13.79 32.92, 21.14 24.46, 41.21 1.37 M6.44 41.37 C15.65 30.77, 24.86 20.17, 41.21 1.37 M12.08 40.98 C19.1 32.91, 26.11 24.84, 41.6 7.01 M12.08 40.98 C21.1 30.59, 30.13 20.21, 41.6 7.01 M17.07 41.34 C25.82 31.26, 34.58 21.19, 41.34 13.41 M17.07 41.34 C24.1 33.25, 31.13 25.16, 41.34 13.41 M22.71 40.94 C29.55 33.07, 36.4 25.2, 41.08 19.81 M22.71 40.94 C28.79 33.95, 34.87 26.95, 41.08 19.81 M27.7 41.3 C32.55 35.72, 37.4 30.14, 41.47 25.45 M27.7 41.3 C31.24 37.23, 34.78 33.15, 41.47 25.45 M33.34 40.91 C35.44 38.49, 37.54 36.08, 41.21 31.85 M33.34 40.91 C34.97 39.03, 36.6 37.15, 41.21 31.85 M38.33 41.27 C39.54 39.87, 40.76 38.47, 41.61 37.49 M38.33 41.27 C39.09 40.39, 39.86 39.51, 41.61 37.49" stroke="#ffc9c9" stroke-width="0.5" fill="none"/><path d="M0 0 C11.01 0, 22.01 0, 40 0 M0 0 C9.83 0, 19.67 0, 40 0 M40 0 C40 9.97, 40 19.94, 40 40 M40 0 C40 13.83, 40 27.66, 40 40 M40 40 C30.26 40, 20.52 40, 0 40 M40 40 C24.38 40, 8.76 40, 0 40 M0 40 C0 24, 0 8, 0 0 M0 40 C0 26.23, 0 12.45, 0 0" stroke="#e03131" stroke-width="1" fill="none"/></g><g stroke-linecap="round" transform="translate(429.9999999999999 309.99999999999994) rotate(0 20 20)"><path d="M0 0 C0 0, 0 0, 0 0 M0 0 C0 0, 0 0, 0 0 M-0.26 6.4 C1.14 4.78, 2.55 3.17, 4.99 0.36 M-0.26 6.4 C1.6 4.26, 3.46 2.11, 4.99 0.36 M0.13 12.04 C4.27 7.28, 8.41 2.52, 10.63 -0.03 M0.13 12.04 C2.8 8.98, 5.46 5.92, 10.63 -0.03 M-0.13 18.44 C4.8 12.77, 9.74 7.09, 15.62 0.33 M-0.13 18.44 C5.78 11.64, 11.69 4.84, 15.62 0.33 M0.27 24.08 C5.85 17.66, 11.44 11.23, 21.26 -0.07 M0.27 24.08 C8.34 14.8, 16.4 5.52, 21.26 -0.07 M0 30.48 C10.03 18.94, 20.06 7.41, 26.25 0.29 M0 30.48 C6.77 22.7, 13.53 14.92, 26.25 0.29 M-0.26 36.88 C8.69 26.58, 17.64 16.29, 31.89 -0.1 M-0.26 36.88 C8.9 26.35, 18.05 15.82, 31.89 -0.1 M1.45 41.01 C10.62 30.46, 19.79 19.91, 36.88 0.26 M1.45 41.01 C10.92 30.11, 20.4 19.21, 36.88 0.26 M6.44 41.37 C17.41 28.75, 28.38 16.13, 41.21 1.37 M6.44 41.37 C17.57 28.56, 28.71 15.75, 41.21 1.37 M12.08 40.98 C21.75 29.85, 31.43 18.72, 41.6 7.01 M12.08 40.98 C20.06 31.8, 28.03 22.63, 41.6 7.01 M17.07 41.34 C23.43 34.02, 29.79 26.7, 41.34 13.41 M17.07 41.34 C23.3 34.17, 29.53 27, 41.34 13.41 M22.71 40.94 C29.56 33.06, 36.42 25.18, 41.08 19.81 M22.71 40.94 C28.8 33.94, 34.89 26.93, 41.08 19.81 M27.7 41.3 C30.48 38.1, 33.27 34.89, 41.47 25.45 M27.7 41.3 C31.27 37.19, 34.85 33.08, 41.47 25.45 M33.34 40.91 C36.33 37.47, 39.31 34.04, 41.21 31.85 M33.34 40.91 C35.84 38.03, 38.34 35.16, 41.21 31.85 M38.33 41.27 C39.05 40.43, 39.78 39.6, 41.61 37.49 M38.33 41.27 C39.29 40.16, 40.26 39.05, 41.61 37.49" stroke="#ffc9c9" stroke-width="0.5" fill="none"/><path d="M0 0 C15.16 0, 30.32 0, 40 0 M0 0 C8.9 0, 17.8 0, 40 0 M40 0 C40 12.37, 40 24.74, 40 40 M40 0 C40 9.46, 40 18.91, 40 40 M40 40 C26.59 40, 13.18 40, 0 40 M40 40 C30.47 40, 20.93 40, 0 40 M0 40 C0 29.55, 0 19.11, 0 0 M0 40 C0 26.79, 0 13.57, 0 0" stroke="#e03131" stroke-width="1" fill="none"/></g><g stroke-linecap="round" transform="translate(229.9999999999999 309.99999999999994) rotate(0 20 20)"><path d="M0 0 C0 0, 0 0, 0 0 M0 0 C0 0, 0 0, 0 0 M-0.26 6.4 C1.01 4.94, 2.28 3.48, 4.99 0.36 M-0.26 6.4 C1.4 4.49, 3.05 2.59, 4.99 0.36 M0.13 12.04 C2.66 9.14, 5.18 6.23, 10.63 -0.03 M0.13 12.04 C3.94 7.66, 7.75 3.28, 10.63 -0.03 M-0.13 18.44 C3.12 14.7, 6.38 10.96, 15.62 0.33 M-0.13 18.44 C5.8 11.62, 11.72 4.81, 15.62 0.33 M0.27 24.08 C5.4 18.18, 10.53 12.27, 21.26 -0.07 M0.27 24.08 C7.78 15.44, 15.29 6.8, 21.26 -0.07 M0 30.48 C9.09 20.03, 18.17 9.58, 26.25 0.29 M0 30.48 C5.83 23.78, 11.65 17.08, 26.25 0.29 M-0.26 36.88 C12.3 22.43, 24.86 7.98, 31.89 -0.1 M-0.26 36.88 C12.46 22.25, 25.18 7.61, 31.89 -0.1 M1.45 41.01 C13.67 26.95, 25.89 12.89, 36.88 0.26 M1.45 41.01 C9.19 32.11, 16.93 23.21, 36.88 0.26 M6.44 41.37 C15.59 30.84, 24.75 20.3, 41.21 1.37 M6.44 41.37 C18.34 27.68, 30.24 13.99, 41.21 1.37 M12.08 40.98 C20.57 31.21, 29.06 21.44, 41.6 7.01 M12.08 40.98 C21.87 29.72, 31.65 18.46, 41.6 7.01 M17.07 41.34 C23.06 34.44, 29.06 27.54, 41.34 13.41 M17.07 41.34 C23.45 33.99, 29.84 26.65, 41.34 13.41 M22.71 40.94 C27.45 35.48, 32.2 30.03, 41.08 19.81 M22.71 40.94 C28.71 34.04, 34.71 27.14, 41.08 19.81 M27.7 41.3 C32.19 36.14, 36.67 30.98, 41.47 25.45 M27.7 41.3 C30.78 37.76, 33.86 34.21, 41.47 25.45 M33.34 40.91 C36.03 37.82, 38.72 34.72, 41.21 31.85 M33.34 40.91 C36.25 37.56, 39.15 34.22, 41.21 31.85 M38.33 41.27 C39.26 40.19, 40.19 39.12, 41.61 37.49 M38.33 41.27 C39.28 40.17, 40.23 39.08, 41.61 37.49" stroke="#ffc9c9" stroke-width="0.5" fill="none"/><path d="M0 0 C9.5 0, 18.99 0, 40 0 M0 0 C15.2 0, 30.4 0, 40 0 M40 0 C40 12, 40 24, 40 40 M40 0 C40 11.51, 40 23.03, 40 40 M40 40 C27.15 40, 14.3 40, 0 40 M40 40 C30.41 40, 20.83 40, 0 40 M0 40 C0 25.28, 0 10.57, 0 0 M0 40 C0 29.01, 0 18.02, 0 0" stroke="#e03131" stroke-width="1" fill="none"/></g><g stroke-linecap="round" transform="translate(130 309.99999999999994) rotate(0 20 20)"><path d="M0 0 C0 0, 0 0, 0 0 M0 0 C0 0, 0 0, 0 0 M-0.26 6.4 C1.41 4.48, 3.07 2.56, 4.99 0.36 M-0.26 6.4 C1.63 4.22, 3.52 2.04, 4.99 0.36 M0.13 12.04 C2.91 8.85, 5.68 5.66, 10.63 -0.03 M0.13 12.04 C2.61 9.19, 5.09 6.34, 10.63 -0.03 M-0.13 18.44 C5.24 12.26, 10.61 6.08, 15.62 0.33 M-0.13 18.44 C3.55 14.21, 7.23 9.97, 15.62 0.33 M0.27 24.08 C6.89 16.46, 13.51 8.85, 21.26 -0.07 M0.27 24.08 C6.41 17.01, 12.56 9.94, 21.26 -0.07 M0 30.48 C6.33 23.2, 12.66 15.92, 26.25 0.29 M0 30.48 C6.97 22.47, 13.93 14.46, 26.25 0.29 M-0.26 36.88 C8.11 27.25, 16.48 17.62, 31.89 -0.1 M-0.26 36.88 C9.9 25.19, 20.06 13.51, 31.89 -0.1 M1.45 41.01 C8.61 32.77, 15.77 24.54, 36.88 0.26 M1.45 41.01 C12.84 27.91, 24.22 14.82, 36.88 0.26 M6.44 41.37 C19.77 26.04, 33.1 10.7, 41.21 1.37 M6.44 41.37 C15.87 30.53, 25.29 19.68, 41.21 1.37 M12.08 40.98 C18.23 33.9, 24.38 26.83, 41.6 7.01 M12.08 40.98 C19.97 31.9, 27.86 22.82, 41.6 7.01 M17.07 41.34 C26.02 31.04, 34.97 20.74, 41.34 13.41 M17.07 41.34 C24.93 32.29, 32.8 23.24, 41.34 13.41 M22.71 40.94 C27.19 35.78, 31.68 30.62, 41.08 19.81 M22.71 40.94 C29.48 33.15, 36.25 25.36, 41.08 19.81 M27.7 41.3 C31.85 36.53, 35.99 31.76, 41.47 25.45 M27.7 41.3 C31.01 37.49, 34.32 33.68, 41.47 25.45 M33.34 40.91 C35.65 38.25, 37.97 35.58, 41.21 31.85 M33.34 40.91 C35.63 38.27, 37.92 35.63, 41.21 31.85 M38.33 41.27 C39.2 40.27, 40.06 39.27, 41.61 37.49 M38.33 41.27 C39.59 39.81, 40.86 38.36, 41.61 37.49" stroke="#ffc9c9" stroke-width="0.5" fill="none"/><path d="M0 0 C9.16 0, 18.31 0, 40 0 M0 0 C8.34 0, 16.68 0, 40 0 M40 0 C40 14.5, 40 29.01, 40 40 M40 0 C40 9.12, 40 18.23, 40 40 M40 40 C27.79 40, 15.58 40, 0 40 M40 40 C25.62 40, 11.23 40, 0 40 M0 40 C0 24.55, 0 9.1, 0 0 M0 40 C0 24.78, 0 9.56, 0 0" stroke="#e03131" stroke-width="1" fill="none"/></g><g mask="url(#mask-VhMwEZv-B3Hl9KewXI9p_)" stroke-linecap="round"><g transform="translate(487.6666666666664 51) rotate(0 -68.37376081832424 29.30304035071042)"><path d="M0 0 C-30.02 12.87, -60.04 25.73, -136.75 58.61 M0 0 C-42.49 18.21, -84.99 36.42, -136.75 58.61" stroke="#1e1e1e" stroke-width="1" fill="none"/></g><g transform="translate(487.6666666666664 51) rotate(0 -68.37376081832424 29.30304035071042)"><path d="M-136.75 58.61 L-126.75 47.42 L-121.75 59.08 L-136.75 58.61" stroke="none" stroke-width="0" fill="#1e1e1e" fill-rule="evenodd"/><path d="M-136.75 58.61 C-134.55 56.15, -132.36 53.7, -126.75 47.42 M-136.75 58.61 C-133.64 55.13, -130.53 51.66, -126.75 47.42 M-126.75 47.42 C-125.12 51.22, -123.5 55.01, -121.75 59.08 M-126.75 47.42 C-125.27 50.88, -123.79 54.34, -121.75 59.08 M-121.75 59.08 C-125.93 58.95, -130.1 58.82, -136.75 58.61 M-121.75 59.08 C-125.89 58.95, -130.03 58.82, -136.75 58.61 M-136.75 58.61 C-136.75 58.61, -136.75 58.61, -136.75 58.61 M-136.75 58.61 C-136.75 58.61, -136.75 58.61, -136.75 58.61" stroke="#1e1e1e" stroke-width="1" fill="none"/></g></g><mask id="mask-VhMwEZv-B3Hl9KewXI9p_"><rect x="0" y="0" fill="#fff" width="724.4141883033149" height="209.60608070142084"/><rect x="413.7313824108421" y="68.80304035071043" fill="#000" width="11.123046875" height="23" opacity="1"/></mask><g transform="translate(413.7313824108422 68.80304035071043) rotate(0 5.5615234375 11.499999999999986)"><text x="5.5615234375" y="0" font-family="Helvetica, Segoe UI Emoji" font-size="20px" fill="#1e1e1e" text-anchor="middle" style="white-space: pre;" direction="ltr" dominant-baseline="text-before-edge">o</text></g><g mask="url(#mask-oMxDd6SyHPHLXwkc2oumj)" stroke-linecap="round"><g transform="translate(512.3333333333335 51) rotate(0 68.37376081832421 29.303040350710376)"><path d="M0 0 C40.98 17.56, 81.95 35.12, 136.75 58.61 M0 0 C42.37 18.16, 84.74 36.32, 136.75 58.61" stroke="#1e1e1e" stroke-width="1" fill="none"/></g><g transform="translate(512.3333333333335 51) rotate(0 68.37376081832421 29.303040350710376)"><path d="M136.75 58.61 L121.75 59.08 L126.75 47.42 L136.75 58.61" stroke="none" stroke-width="0" fill="#1e1e1e" fill-rule="evenodd"/><path d="M136.75 58.61 C132.26 58.75, 127.76 58.89, 121.75 59.08 M136.75 58.61 C132.1 58.75, 127.46 58.9, 121.75 59.08 M121.75 59.08 C123.27 55.54, 124.79 52, 126.75 47.42 M121.75 59.08 C123.47 55.06, 125.19 51.05, 126.75 47.42 M126.75 47.42 C130.67 51.81, 134.6 56.2, 136.75 58.61 M126.75 47.42 C130.46 51.58, 134.17 55.73, 136.75 58.61 M136.75 58.61 C136.75 58.61, 136.75 58.61, 136.75 58.61 M136.75 58.61 C136.75 58.61, 136.75 58.61, 136.75 58.61" stroke="#1e1e1e" stroke-width="1" fill="none"/></g></g><mask id="mask-oMxDd6SyHPHLXwkc2oumj"><rect x="0" y="0" fill="#fff" width="749.0808549699819" height="209.60608070142075"/><rect x="575.1455707141577" y="68.80304035071038" fill="#000" width="11.123046875" height="23" opacity="1"/></mask><g transform="translate(575.1455707141577 68.80304035071038) rotate(0 5.561523437499986 11.5)"><text x="5.5615234375" y="0" font-family="Helvetica, Segoe UI Emoji" font-size="20px" fill="#1e1e1e" text-anchor="middle" style="white-space: pre;" direction="ltr" dominant-baseline="text-before-edge">1</text></g><g mask="url(#mask-h68uyfaqGRvE-pHkCTgHR)" stroke-linecap="round"><g transform="translate(288.33333333333326 151) rotate(0 -48.33333333333326 28.99999999999997)"><path d="M0 0 C-34.4 20.64, -68.8 41.28, -96.67 58 M0 0 C-24.09 14.46, -48.19 28.91, -96.67 58" stroke="#1e1e1e" stroke-width="1" fill="none"/></g><g transform="translate(288.33333333333326 151) rotate(0 -48.33333333333326 28.99999999999997)"><path d="M-96.67 58 L-88.27 45.57 L-81.75 56.44 L-96.67 58" stroke="none" stroke-width="0" fill="#1e1e1e" fill-rule="evenodd"/><path d="M-96.67 58 C-93.68 53.58, -90.69 49.15, -88.27 45.57 M-96.67 58 C-94.57 54.9, -92.48 51.8, -88.27 45.57 M-88.27 45.57 C-86.89 47.88, -85.5 50.19, -81.75 56.44 M-88.27 45.57 C-86.95 47.77, -85.63 49.97, -81.75 56.44 M-81.75 56.44 C-86.86 56.98, -91.97 57.51, -96.67 58 M-81.75 56.44 C-87.68 57.06, -93.61 57.68, -96.67 58 M-96.67 58 C-96.67 58, -96.67 58, -96.67 58 M-96.67 58 C-96.67 58, -96.67 58, -96.67 58" stroke="#1e1e1e" stroke-width="1" fill="none"/></g></g><mask id="mask-h68uyfaqGRvE-pHkCTgHR"><rect x="0" y="0" fill="#fff" width="484.9999999999998" height="308.99999999999994"/><rect x="234.4384765625" y="168.49999999999997" fill="#000" width="11.123046875" height="23" opacity="1"/></mask><g transform="translate(234.4384765625 168.49999999999997) rotate(0 5.5615234375 11.5)"><text x="5.5615234375" y="0" font-family="Helvetica, Segoe UI Emoji" font-size="20px" fill="#1e1e1e" text-anchor="middle" style="white-space: pre;" direction="ltr" dominant-baseline="text-before-edge">0</text></g><g mask="url(#mask-9OvDN0b0kx72yfVZyu4Oy)" stroke-linecap="round"><g transform="translate(311.6666666666665 151) rotate(0 48.333333333333314 28.99999999999997)"><path d="M0 0 C25.75 15.45, 51.5 30.9, 96.67 58 M0 0 C19.41 11.65, 38.82 23.29, 96.67 58" stroke="#1e1e1e" stroke-width="1" fill="none"/></g><g transform="translate(311.6666666666665 151) rotate(0 48.333333333333314 28.99999999999997)"><path d="M96.67 58 L81.75 56.44 L88.27 45.57 L96.67 58" stroke="none" stroke-width="0" fill="#1e1e1e" fill-rule="evenodd"/><path d="M96.67 58 C92.69 57.58, 88.72 57.17, 81.75 56.44 M96.67 58 C93.67 57.69, 90.68 57.37, 81.75 56.44 M81.75 56.44 C83.25 53.94, 84.75 51.43, 88.27 45.57 M81.75 56.44 C83.33 53.8, 84.92 51.15, 88.27 45.57 M88.27 45.57 C90 48.13, 91.73 50.69, 96.67 58 M88.27 45.57 C90.17 48.39, 92.08 51.2, 96.67 58 M96.67 58 C96.67 58, 96.67 58, 96.67 58 M96.67 58 C96.67 58, 96.67 58, 96.67 58" stroke="#1e1e1e" stroke-width="1" fill="none"/></g></g><mask id="mask-9OvDN0b0kx72yfVZyu4Oy"><rect x="0" y="0" fill="#fff" width="508.33333333333314" height="308.99999999999994"/><rect x="354.43847656249983" y="168.49999999999997" fill="#000" width="11.123046875" height="23" opacity="1"/></mask><g transform="translate(354.43847656249983 168.49999999999997) rotate(0 5.5615234375 11.5)"><text x="5.5615234375" y="0" font-family="Helvetica, Segoe UI Emoji" font-size="20px" fill="#1e1e1e" text-anchor="middle" style="white-space: pre;" direction="ltr" dominant-baseline="text-before-edge">1</text></g><g mask="url(#mask-BpWsGb4HdEtqzJgo11kT0)" stroke-linecap="round"><g transform="translate(693.1639344262294 151) rotate(0 -22.34426229508196 28.99999999999997)"><path d="M0 0 C-13.82 17.94, -27.64 35.87, -44.69 58 M0 0 C-10.56 13.71, -21.13 27.42, -44.69 58" stroke="#1e1e1e" stroke-width="1" fill="none"/></g><g transform="translate(693.1639344262294 151) rotate(0 -22.34426229508196 28.99999999999997)"><path d="M-44.69 58 L-41.41 43.36 L-31.37 51.1 L-44.69 58" stroke="none" stroke-width="0" fill="#1e1e1e" fill-rule="evenodd"/><path d="M-44.69 58 C-43.68 53.47, -42.66 48.95, -41.41 43.36 M-44.69 58 C-43.91 54.54, -43.14 51.08, -41.41 43.36 M-41.41 43.36 C-38.05 45.96, -34.68 48.55, -31.37 51.1 M-41.41 43.36 C-39.02 45.21, -36.63 47.05, -31.37 51.1 M-31.37 51.1 C-34.85 52.9, -38.33 54.7, -44.69 58 M-31.37 51.1 C-35.77 53.38, -40.17 55.66, -44.69 58 M-44.69 58 C-44.69 58, -44.69 58, -44.69 58 M-44.69 58 C-44.69 58, -44.69 58, -44.69 58" stroke="#1e1e1e" stroke-width="1" fill="none"/></g></g><mask id="mask-BpWsGb4HdEtqzJgo11kT0"><rect x="0" y="0" fill="#fff" width="837.8524590163934" height="308.99999999999994"/><rect x="665.2581486936474" y="168.49999999999997" fill="#000" width="11.123046875" height="23" opacity="1"/></mask><g transform="translate(665.2581486936474 168.49999999999997) rotate(0 5.5615234375 11.5)"><text x="5.5615234375" y="0" font-family="Helvetica, Segoe UI Emoji" font-size="20px" fill="#1e1e1e" text-anchor="middle" style="white-space: pre;" direction="ltr" dominant-baseline="text-before-edge">0</text></g><g mask="url(#mask-_UcttEvnqijrhfHeQ1k0l)" stroke-linecap="round"><g transform="translate(706.8360655737704 151) rotate(0 22.344262295081933 28.99999999999997)"><path d="M0 0 C16.2 21.03, 32.41 42.06, 44.69 58 M0 0 C10.18 13.22, 20.37 26.44, 44.69 58" stroke="#1e1e1e" stroke-width="1" fill="none"/></g><g transform="translate(706.8360655737704 151) rotate(0 22.344262295081933 28.99999999999997)"><path d="M44.69 58 L31.37 51.1 L41.41 43.36 L44.69 58" stroke="none" stroke-width="0" fill="#1e1e1e" fill-rule="evenodd"/><path d="M44.69 58 C39.86 55.5, 35.03 53, 31.37 51.1 M44.69 58 C41.65 56.43, 38.62 54.86, 31.37 51.1 M31.37 51.1 C34.44 48.74, 37.5 46.38, 41.41 43.36 M31.37 51.1 C34.98 48.32, 38.59 45.54, 41.41 43.36 M41.41 43.36 C42.68 49.02, 43.94 54.67, 44.69 58 M41.41 43.36 C42.66 48.93, 43.91 54.5, 44.69 58 M44.69 58 C44.69 58, 44.69 58, 44.69 58 M44.69 58 C44.69 58, 44.69 58, 44.69 58" stroke="#1e1e1e" stroke-width="1" fill="none"/></g></g><mask id="mask-_UcttEvnqijrhfHeQ1k0l"><rect x="0" y="0" fill="#fff" width="851.5245901639342" height="308.99999999999994"/><rect x="723.6188044313524" y="168.49999999999997" fill="#000" width="11.123046875" height="23" opacity="1"/></mask><g transform="translate(723.6188044313524 168.49999999999997) rotate(0 5.5615234375 11.5)"><text x="5.5615234375" y="0" font-family="Helvetica, Segoe UI Emoji" font-size="20px" fill="#1e1e1e" text-anchor="middle" style="white-space: pre;" direction="ltr" dominant-baseline="text-before-edge">1</text></g><g mask="url(#mask-il6CIHGjv-Yt2aDAFrRut)" stroke-linecap="round"><g transform="translate(193.1639344262294 250.99999999999994) rotate(0 -22.344262295081904 28.999999999999993)"><path d="M0 0 C-13.61 17.67, -27.22 35.33, -44.69 58 M0 0 C-11.05 14.34, -22.09 28.67, -44.69 58" stroke="#1e1e1e" stroke-width="1" fill="none"/></g><g transform="translate(193.1639344262294 250.99999999999994) rotate(0 -22.344262295081904 28.999999999999993)"><path d="M-44.69 58 L-41.41 43.36 L-31.37 51.1 L-44.69 58" stroke="none" stroke-width="0" fill="#1e1e1e" fill-rule="evenodd"/><path d="M-44.69 58 C-43.69 53.54, -42.69 49.08, -41.41 43.36 M-44.69 58 C-43.88 54.38, -43.07 50.76, -41.41 43.36 M-41.41 43.36 C-38.21 45.83, -35.01 48.29, -31.37 51.1 M-41.41 43.36 C-37.61 46.29, -33.8 49.23, -31.37 51.1 M-31.37 51.1 C-34.82 52.89, -38.28 54.68, -44.69 58 M-31.37 51.1 C-34.69 52.82, -38.01 54.54, -44.69 58 M-44.69 58 C-44.69 58, -44.69 58, -44.69 58 M-44.69 58 C-44.69 58, -44.69 58, -44.69 58" stroke="#1e1e1e" stroke-width="1" fill="none"/></g></g><mask id="mask-il6CIHGjv-Yt2aDAFrRut"><rect x="0" y="0" fill="#fff" width="337.8524590163932" height="408.99999999999994"/><rect x="165.2581486936475" y="268.49999999999994" fill="#000" width="11.123046875" height="23" opacity="1"/></mask><g transform="translate(165.2581486936475 268.49999999999994) rotate(0 5.561523437499972 11.499999999999993)"><text x="5.5615234375" y="0" font-family="Helvetica, Segoe UI Emoji" font-size="20px" fill="#1e1e1e" text-anchor="middle" style="white-space: pre;" direction="ltr" dominant-baseline="text-before-edge">0</text></g><g mask="url(#mask-nO5rVslJNa3fuAD-RNriq)" stroke-linecap="round"><g transform="translate(206.8360655737705 250.99999999999994) rotate(0 22.344262295081876 28.999999999999986)"><path d="M0 0 C9.53 12.37, 19.07 24.75, 44.69 58 M0 0 C16.36 21.23, 32.72 42.47, 44.69 58" stroke="#1e1e1e" stroke-width="1" fill="none"/></g><g transform="translate(206.8360655737705 250.99999999999994) rotate(0 22.344262295081876 28.999999999999986)"><path d="M44.69 58 L31.37 51.1 L41.41 43.36 L44.69 58" stroke="none" stroke-width="0" fill="#1e1e1e" fill-rule="evenodd"/><path d="M44.69 58 C41.85 56.53, 39.01 55.06, 31.37 51.1 M44.69 58 C39.81 55.47, 34.94 52.95, 31.37 51.1 M31.37 51.1 C34.92 48.36, 38.47 45.63, 41.41 43.36 M31.37 51.1 C34.06 49.02, 36.76 46.95, 41.41 43.36 M41.41 43.36 C42.59 48.61, 43.76 53.86, 44.69 58 M41.41 43.36 C42.09 46.41, 42.78 49.46, 44.69 58 M44.69 58 C44.69 58, 44.69 58, 44.69 58 M44.69 58 C44.69 58, 44.69 58, 44.69 58" stroke="#1e1e1e" stroke-width="1" fill="none"/></g></g><mask id="mask-nO5rVslJNa3fuAD-RNriq"><rect x="0" y="0" fill="#fff" width="351.52459016393425" height="408.9999999999999"/><rect x="223.61880443135237" y="268.49999999999994" fill="#000" width="11.123046875" height="23" opacity="1"/></mask><g transform="translate(223.61880443135237 268.49999999999994) rotate(0 5.5615234375 11.5)"><text x="5.5615234375" y="0" font-family="Helvetica, Segoe UI Emoji" font-size="20px" fill="#1e1e1e" text-anchor="middle" style="white-space: pre;" direction="ltr" dominant-baseline="text-before-edge">1</text></g><g mask="url(#mask-dqg0RXRlHXhj2-9aD8vvG)" stroke-linecap="round"><g transform="translate(393.16393442622933 250.99999999999994) rotate(0 -22.34426229508196 29)"><path d="M0 0 C-16.4 21.28, -32.8 42.56, -44.69 58 M0 0 C-11.47 14.88, -22.93 29.76, -44.69 58" stroke="#1e1e1e" stroke-width="1" fill="none"/></g><g transform="translate(393.16393442622933 250.99999999999994) rotate(0 -22.34426229508196 29)"><path d="M-44.69 58 L-41.41 43.36 L-31.37 51.1 L-44.69 58" stroke="none" stroke-width="0" fill="#1e1e1e" fill-rule="evenodd"/><path d="M-44.69 58 C-43.49 52.63, -42.28 47.26, -41.41 43.36 M-44.69 58 C-43.85 54.24, -43.01 50.49, -41.41 43.36 M-41.41 43.36 C-37.52 46.36, -33.62 49.37, -31.37 51.1 M-41.41 43.36 C-37.4 46.45, -33.39 49.54, -31.37 51.1 M-31.37 51.1 C-36.19 53.6, -41.01 56.1, -44.69 58 M-31.37 51.1 C-35.75 53.37, -40.14 55.64, -44.69 58 M-44.69 58 C-44.69 58, -44.69 58, -44.69 58 M-44.69 58 C-44.69 58, -44.69 58, -44.69 58" stroke="#1e1e1e" stroke-width="1" fill="none"/></g></g><mask id="mask-dqg0RXRlHXhj2-9aD8vvG"><rect x="0" y="0" fill="#fff" width="537.8524590163933" height="408.99999999999994"/><rect x="365.25814869364734" y="268.49999999999994" fill="#000" width="11.123046875" height="23" opacity="1"/></mask><g transform="translate(365.2581486936474 268.49999999999994) rotate(0 5.5615234375 11.5)"><text x="5.5615234375" y="0" font-family="Helvetica, Segoe UI Emoji" font-size="20px" fill="#1e1e1e" text-anchor="middle" style="white-space: pre;" direction="ltr" dominant-baseline="text-before-edge">0</text></g><g mask="url(#mask-5R_p5mWjF70qUp-y6pJJK)" stroke-linecap="round"><g transform="translate(406.8360655737704 250.99999999999994) rotate(0 22.34426229508196 29)"><path d="M0 0 C10.88 14.13, 21.77 28.25, 44.69 58 M0 0 C17.45 22.65, 34.9 45.29, 44.69 58" stroke="#1e1e1e" stroke-width="1" fill="none"/></g><g transform="translate(406.8360655737704 250.99999999999994) rotate(0 22.34426229508196 29)"><path d="M44.69 58 L31.37 51.1 L41.41 43.36 L44.69 58" stroke="none" stroke-width="0" fill="#1e1e1e" fill-rule="evenodd"/><path d="M44.69 58 C41.44 56.32, 38.2 54.64, 31.37 51.1 M44.69 58 C39.49 55.31, 34.29 52.61, 31.37 51.1 M31.37 51.1 C35.39 48.01, 39.4 44.91, 41.41 43.36 M31.37 51.1 C34.83 48.44, 38.29 45.77, 41.41 43.36 M41.41 43.36 C42.55 48.45, 43.69 53.55, 44.69 58 M41.41 43.36 C42.34 47.52, 43.28 51.69, 44.69 58 M44.69 58 C44.69 58, 44.69 58, 44.69 58 M44.69 58 C44.69 58, 44.69 58, 44.69 58" stroke="#1e1e1e" stroke-width="1" fill="none"/></g></g><mask id="mask-5R_p5mWjF70qUp-y6pJJK"><rect x="0" y="0" fill="#fff" width="551.5245901639344" height="408.99999999999994"/><rect x="423.6188044313524" y="268.49999999999994" fill="#000" width="11.123046875" height="23" opacity="1"/></mask><g transform="translate(423.6188044313524 268.49999999999994) rotate(0 5.5615234375 11.5)"><text x="5.5615234375" y="0" font-family="Helvetica, Segoe UI Emoji" font-size="20px" fill="#1e1e1e" text-anchor="middle" style="white-space: pre;" direction="ltr" dominant-baseline="text-before-edge">1</text></g><g stroke-linecap="round" transform="translate(130 190) rotate(0 70 40)"><path d="M0 0 C28.69 0, 57.37 0, 140 0 M140 0 C140 25.57, 140 51.14, 140 80 M140 80 C95.7 80, 51.4 80, 0 80 M0 80 C0 49.98, 0 19.96, 0 0" stroke="#1e1e1e" stroke-width="1.5" fill="none" stroke-dasharray="8 9"/></g><g stroke-linecap="round" transform="translate(330 190) rotate(0 70 40)"><path d="M0 0 C46.89 0, 93.77 0, 140 0 M140 0 C140 29.44, 140 58.89, 140 80 M140 80 C105.16 80, 70.32 80, 0 80 M0 80 C0 48.52, 0 17.04, 0 0" stroke="#1e1e1e" stroke-width="1.5" fill="none" stroke-dasharray="8 9"/></g><g stroke-linecap="round" transform="translate(630 90) rotate(0 70 40)"><path d="M0 0 C55.11 0, 110.22 0, 140 0 M140 0 C140 19.8, 140 39.61, 140 80 M140 80 C105.19 80, 70.37 80, 0 80 M0 80 C0 60.76, 0 41.52, 0 0" stroke="#1e1e1e" stroke-width="1.5" fill="none" stroke-dasharray="8 9"/></g><g transform="translate(10 270) rotate(0 37.79296875 11.5)"><text x="0" y="0" font-family="Helvetica, Segoe UI Emoji" font-size="20px" fill="#1e1e1e" text-anchor="start" style="white-space: pre;" direction="ltr" dominant-baseline="text-before-edge">Dretva 1</text></g><g transform="translate(521.5811235476764 270.662387945713) rotate(0 37.79296875 11.5)"><text x="0" y="0" font-family="Helvetica, Segoe UI Emoji" font-size="20px" fill="#1e1e1e" text-anchor="start" style="white-space: pre;" direction="ltr" dominant-baseline="text-before-edge">Dretva 2</text></g><g transform="translate(830 170) rotate(0 37.79296875 11.5)"><text x="0" y="0" font-family="Helvetica, Segoe UI Emoji" font-size="20px" fill="#1e1e1e" text-anchor="start" style="white-space: pre;" direction="ltr" dominant-baseline="text-before-edge">Dretva 3</text></g><g stroke-linecap="round"><g transform="translate(90 270) rotate(0 20 -20)"><path d="M0 0 C12.04 -12.04, 24.08 -24.08, 40 -40 M0 0 C11.45 -11.45, 22.89 -22.89, 40 -40" stroke="#1e1e1e" stroke-width="2" fill="none"/></g><g transform="translate(90 270) rotate(0 20 -20)"><path d="M28.05 -14.37 C31.64 -22.08, 35.24 -29.8, 40 -40 M28.05 -14.37 C31.47 -21.7, 34.89 -29.04, 40 -40" stroke="#1e1e1e" stroke-width="2" fill="none"/></g><g transform="translate(90 270) rotate(0 20 -20)"><path d="M14.37 -28.05 C22.08 -31.64, 29.8 -35.24, 40 -40 M14.37 -28.05 C21.7 -31.47, 29.04 -34.89, 40 -40" stroke="#1e1e1e" stroke-width="2" fill="none"/></g></g><mask/><g stroke-linecap="round"><g transform="translate(510 270) rotate(0 -20 -20)"><path d="M0 0 C-14.3 -14.3, -28.6 -28.6, -40 -40 M0 0 C-13.51 -13.51, -27.01 -27.01, -40 -40" stroke="#1e1e1e" stroke-width="2" fill="none"/></g><g transform="translate(510 270) rotate(0 -20 -20)"><path d="M-14.37 -28.05 C-23.53 -32.32, -32.7 -36.59, -40 -40 M-14.37 -28.05 C-23.02 -32.08, -31.68 -36.12, -40 -40" stroke="#1e1e1e" stroke-width="2" fill="none"/></g><g transform="translate(510 270) rotate(0 -20 -20)"><path d="M-28.05 -14.37 C-32.32 -23.53, -36.59 -32.7, -40 -40 M-28.05 -14.37 C-32.08 -23.02, -36.12 -31.68, -40 -40" stroke="#1e1e1e" stroke-width="2" fill="none"/></g></g><mask/><g stroke-linecap="round"><g transform="translate(830 170) rotate(0 -30 -20)"><path d="M0 0 C-18.28 -12.19, -36.56 -24.37, -60 -40 M0 0 C-21.62 -14.41, -43.23 -28.82, -60 -40" stroke="#1e1e1e" stroke-width="2" fill="none"/></g><g transform="translate(830 170) rotate(0 -30 -20)"><path d="M-30.85 -32.9 C-39.73 -35.06, -48.61 -37.23, -60 -40 M-30.85 -32.9 C-41.35 -35.46, -51.86 -38.02, -60 -40" stroke="#1e1e1e" stroke-width="2" fill="none"/></g><g transform="translate(830 170) rotate(0 -30 -20)"><path d="M-42.24 -15.83 C-47.65 -23.19, -53.06 -30.56, -60 -40 M-42.24 -15.83 C-48.64 -24.54, -55.04 -33.24, -60 -40" stroke="#1e1e1e" stroke-width="2" fill="none"/></g></g><mask/></svg>
