<svg version="1.1" xmlns="http://www.w3.org/2000/svg" viewBox="0 0 660 360" width="660" height="360">
  <!-- svg-source:excalidraw -->
  
  <defs>
    <style class="style-fonts">
      @font-face {
        font-family: "Virgil";
        src: url("https://excalidraw.com/Virgil.woff2");
      }
      @font-face {
        font-family: "Cascadia";
        src: url("https://excalidraw.com/Cascadia.woff2");
      }
    </style>
    
  </defs>
  <rect x="0" y="0" width="660" height="360" fill="#ffffff"/><g stroke-linecap="round" transform="translate(330 10) rotate(0 50 20)"><path d="M0 0 C24.85 0, 49.71 0, 100 0 M0 0 C21.98 0, 43.95 0, 100 0 M100 0 C100 12.87, 100 25.73, 100 40 M100 0 C100 10.15, 100 20.29, 100 40 M100 40 C71.66 40, 43.31 40, 0 40 M100 40 C65.49 40, 30.97 40, 0 40 M0 40 C0 31.47, 0 22.95, 0 0 M0 40 C0 27.15, 0 14.3, 0 0" stroke="#1e1e1e" stroke-width="1" fill="none"/></g><g transform="translate(374.4384765625 18.5) rotate(0 5.5615234375 11.5)"><text x="5.5615234375" y="0" font-family="Helvetica, Segoe UI Emoji" font-size="20px" fill="#1e1e1e" text-anchor="middle" style="white-space: pre;" direction="ltr" dominant-baseline="text-before-edge">a</text></g><g stroke-linecap="round" transform="translate(130 110) rotate(0 50 20)"><path d="M0 0 C34.32 0, 68.64 0, 100 0 M0 0 C21.19 0, 42.38 0, 100 0 M100 0 C100 10.8, 100 21.6, 100 40 M100 0 C100 14.82, 100 29.64, 100 40 M100 40 C76.19 40, 52.38 40, 0 40 M100 40 C73.49 40, 46.97 40, 0 40 M0 40 C0 25.42, 0 10.84, 0 0 M0 40 C0 28.58, 0 17.17, 0 0" stroke="#1e1e1e" stroke-width="1" fill="none"/></g><g transform="translate(174.4384765625 118.5) rotate(0 5.5615234375 11.5)"><text x="5.5615234375" y="0" font-family="Helvetica, Segoe UI Emoji" font-size="20px" fill="#1e1e1e" text-anchor="middle" style="white-space: pre;" direction="ltr" dominant-baseline="text-before-edge">b</text></g><g stroke-linecap="round" transform="translate(530 110) rotate(0 50 20)"><path d="M0 0 C25.36 0, 50.73 0, 100 0 M0 0 C28.34 0, 56.69 0, 100 0 M100 0 C100 13.81, 100 27.61, 100 40 M100 0 C100 8.53, 100 17.05, 100 40 M100 40 C67.88 40, 35.75 40, 0 40 M100 40 C72.24 40, 44.47 40, 0 40 M0 40 C0 27.15, 0 14.29, 0 0 M0 40 C0 26.75, 0 13.51, 0 0" stroke="#1e1e1e" stroke-width="1" fill="none"/></g><g transform="translate(574.4384765625 118.5) rotate(0 5.5615234375 11.5)"><text x="5.5615234375" y="0" font-family="Helvetica, Segoe UI Emoji" font-size="20px" fill="#1e1e1e" text-anchor="middle" style="white-space: pre;" direction="ltr" dominant-baseline="text-before-edge">b</text></g><g stroke-linecap="round" transform="translate(30 210) rotate(0 50 20)"><path d="M0 0 C37.04 0, 74.09 0, 100 0 M0 0 C23.81 0, 47.62 0, 100 0 M100 0 C100 10.61, 100 21.21, 100 40 M100 0 C100 14.58, 100 29.16, 100 40 M100 40 C71.46 40, 42.91 40, 0 40 M100 40 C74.67 40, 49.34 40, 0 40 M0 40 C0 26.67, 0 13.34, 0 0 M0 40 C0 24.14, 0 8.29, 0 0" stroke="#1e1e1e" stroke-width="1" fill="none"/></g><g transform="translate(75 218.5) rotate(0 5 11.5)"><text x="5" y="0" font-family="Helvetica, Segoe UI Emoji" font-size="20px" fill="#1e1e1e" text-anchor="middle" style="white-space: pre;" direction="ltr" dominant-baseline="text-before-edge">c</text></g><g stroke-linecap="round" transform="translate(230 210) rotate(0 50 20)"><path d="M0 0 C24.06 0, 48.11 0, 100 0 M0 0 C28.67 0, 57.35 0, 100 0 M100 0 C100 15.51, 100 31.03, 100 40 M100 0 C100 10.09, 100 20.18, 100 40 M100 40 C61.67 40, 23.33 40, 0 40 M100 40 C65.48 40, 30.96 40, 0 40 M0 40 C0 25.84, 0 11.68, 0 0 M0 40 C0 30.71, 0 21.42, 0 0" stroke="#1e1e1e" stroke-width="1" fill="none"/></g><g transform="translate(275 218.5) rotate(0 5 11.5)"><text x="5" y="0" font-family="Helvetica, Segoe UI Emoji" font-size="20px" fill="#1e1e1e" text-anchor="middle" style="white-space: pre;" direction="ltr" dominant-baseline="text-before-edge">c</text></g><g stroke-linecap="round" transform="translate(510 210) rotate(0 20 20)"><path d="M0 0 C0 0, 0 0, 0 0 M0 0 C0 0, 0 0, 0 0 M-0.26 6.4 C1.22 4.7, 2.7 3, 4.99 0.36 M-0.26 6.4 C1.62 4.23, 3.51 2.06, 4.99 0.36 M0.13 12.04 C4.05 7.54, 7.96 3.04, 10.63 -0.03 M0.13 12.04 C3.61 8.05, 7.08 4.05, 10.63 -0.03 M-0.13 18.44 C3.86 13.85, 7.84 9.27, 15.62 0.33 M-0.13 18.44 C5.5 11.96, 11.13 5.49, 15.62 0.33 M0.27 24.08 C4.72 18.96, 9.17 13.83, 21.26 -0.07 M0.27 24.08 C7.48 15.79, 14.69 7.49, 21.26 -0.07 M0 30.48 C6.62 22.87, 13.23 15.27, 26.25 0.29 M0 30.48 C7.37 22.01, 14.74 13.53, 26.25 0.29 M-0.26 36.88 C8.96 26.27, 18.18 15.67, 31.89 -0.1 M-0.26 36.88 C7.72 27.7, 15.71 18.51, 31.89 -0.1 M1.45 41.01 C13.63 27, 25.8 12.99, 36.88 0.26 M1.45 41.01 C9 32.32, 16.55 23.64, 36.88 0.26 M6.44 41.37 C19.03 26.88, 31.63 12.39, 41.21 1.37 M6.44 41.37 C14.42 32.19, 22.4 23.01, 41.21 1.37 M12.08 40.98 C23.72 27.59, 35.36 14.2, 41.6 7.01 M12.08 40.98 C19.15 32.85, 26.21 24.72, 41.6 7.01 M17.07 41.34 C22.02 35.64, 26.98 29.94, 41.34 13.41 M17.07 41.34 C23.66 33.75, 30.26 26.16, 41.34 13.41 M22.71 40.94 C27.65 35.26, 32.59 29.58, 41.08 19.81 M22.71 40.94 C27.18 35.79, 31.66 30.65, 41.08 19.81 M27.7 41.3 C32.91 35.31, 38.12 29.32, 41.47 25.45 M27.7 41.3 C32.65 35.61, 37.59 29.92, 41.47 25.45 M33.34 40.91 C35.18 38.79, 37.02 36.68, 41.21 31.85 M33.34 40.91 C35.78 38.1, 38.23 35.29, 41.21 31.85 M38.33 41.27 C39.15 40.33, 39.97 39.38, 41.61 37.49 M38.33 41.27 C39.23 40.23, 40.14 39.18, 41.61 37.49" stroke="#ffc9c9" stroke-width="0.5" fill="none"/><path d="M0 0 C8.38 0, 16.76 0, 40 0 M0 0 C8.08 0, 16.16 0, 40 0 M40 0 C40 14.34, 40 28.68, 40 40 M40 0 C40 8.01, 40 16.02, 40 40 M40 40 C26.52 40, 13.03 40, 0 40 M40 40 C30.22 40, 20.44 40, 0 40 M0 40 C0 29.12, 0 18.24, 0 0 M0 40 C0 31.93, 0 23.87, 0 0" stroke="#e03131" stroke-width="1" fill="none"/></g><g stroke-linecap="round" transform="translate(610 210) rotate(0 20 20)"><path d="M0 0 C0 0, 0 0, 0 0 M0 0 C0 0, 0 0, 0 0 M-0.26 6.4 C0.81 5.17, 1.87 3.94, 4.99 0.36 M-0.26 6.4 C1.71 4.14, 3.67 1.87, 4.99 0.36 M0.13 12.04 C2.66 9.14, 5.19 6.23, 10.63 -0.03 M0.13 12.04 C4.01 7.58, 7.89 3.12, 10.63 -0.03 M-0.13 18.44 C5.5 11.96, 11.13 5.49, 15.62 0.33 M-0.13 18.44 C4.58 13.02, 9.29 7.6, 15.62 0.33 M0.27 24.08 C8.58 14.52, 16.89 4.96, 21.26 -0.07 M0.27 24.08 C5.07 18.55, 9.88 13.03, 21.26 -0.07 M0 30.48 C7.49 21.87, 14.97 13.27, 26.25 0.29 M0 30.48 C8.81 20.35, 17.61 10.23, 26.25 0.29 M-0.26 36.88 C7.52 27.94, 15.29 18.99, 31.89 -0.1 M-0.26 36.88 C9.65 25.48, 19.56 14.09, 31.89 -0.1 M1.45 41.01 C14.57 25.92, 27.69 10.82, 36.88 0.26 M1.45 41.01 C13.82 26.78, 26.18 12.56, 36.88 0.26 M6.44 41.37 C15.57 30.87, 24.7 20.36, 41.21 1.37 M6.44 41.37 C19.39 26.47, 32.35 11.56, 41.21 1.37 M12.08 40.98 C23.82 27.47, 35.57 13.96, 41.6 7.01 M12.08 40.98 C18.15 33.99, 24.23 27, 41.6 7.01 M17.07 41.34 C25.39 31.77, 33.71 22.19, 41.34 13.41 M17.07 41.34 C26.48 30.51, 35.9 19.67, 41.34 13.41 M22.71 40.94 C29.17 33.51, 35.63 26.08, 41.08 19.81 M22.71 40.94 C29.53 33.1, 36.34 25.26, 41.08 19.81 M27.7 41.3 C32.75 35.49, 37.8 29.68, 41.47 25.45 M27.7 41.3 C32.1 36.24, 36.5 31.17, 41.47 25.45 M33.34 40.91 C35.05 38.95, 36.75 36.98, 41.21 31.85 M33.34 40.91 C35.79 38.09, 38.23 35.28, 41.21 31.85 M38.33 41.27 C39.04 40.44, 39.76 39.62, 41.61 37.49 M38.33 41.27 C39.42 40.01, 40.51 38.75, 41.61 37.49" stroke="#b2f2bb" stroke-width="0.5" fill="none"/><path d="M0 0 C10.98 0, 21.96 0, 40 0 M0 0 C10.06 0, 20.12 0, 40 0 M40 0 C40 11.11, 40 22.22, 40 40 M40 0 C40 15.94, 40 31.88, 40 40 M40 40 C29.43 40, 18.86 40, 0 40 M40 40 C30.15 40, 20.31 40, 0 40 M0 40 C0 30.47, 0 20.94, 0 0 M0 40 C0 28.15, 0 16.29, 0 0" stroke="#2f9e44" stroke-width="1" fill="none"/></g><g stroke-linecap="round" transform="translate(210 310) rotate(0 20 20)"><path d="M0 0 C0 0, 0 0, 0 0 M0 0 C0 0, 0 0, 0 0 M-0.26 6.4 C1.64 4.21, 3.54 2.03, 4.99 0.36 M-0.26 6.4 C1.56 4.3, 3.38 2.21, 4.99 0.36 M0.13 12.04 C2.97 8.78, 5.81 5.51, 10.63 -0.03 M0.13 12.04 C3.31 8.39, 6.48 4.74, 10.63 -0.03 M-0.13 18.44 C3.8 13.91, 7.74 9.39, 15.62 0.33 M-0.13 18.44 C6.01 11.38, 12.15 4.32, 15.62 0.33 M0.27 24.08 C7.97 15.22, 15.68 6.35, 21.26 -0.07 M0.27 24.08 C5.47 18.09, 10.68 12.1, 21.26 -0.07 M0 30.48 C9.89 19.11, 19.77 7.74, 26.25 0.29 M0 30.48 C6.02 23.56, 12.03 16.64, 26.25 0.29 M-0.26 36.88 C10.03 25.04, 20.32 13.21, 31.89 -0.1 M-0.26 36.88 C12.52 22.18, 25.3 7.47, 31.89 -0.1 M1.45 41.01 C13.03 27.69, 24.6 14.38, 36.88 0.26 M1.45 41.01 C13.15 27.55, 24.85 14.09, 36.88 0.26 M6.44 41.37 C13.86 32.83, 21.29 24.29, 41.21 1.37 M6.44 41.37 C17.45 28.71, 28.46 16.04, 41.21 1.37 M12.08 40.98 C20.49 31.31, 28.89 21.64, 41.6 7.01 M12.08 40.98 C22.67 28.79, 33.26 16.61, 41.6 7.01 M17.07 41.34 C25.13 32.06, 33.19 22.79, 41.34 13.41 M17.07 41.34 C26.07 30.98, 35.08 20.62, 41.34 13.41 M22.71 40.94 C27.02 35.98, 31.34 31.02, 41.08 19.81 M22.71 40.94 C29.69 32.91, 36.68 24.87, 41.08 19.81 M27.7 41.3 C32.65 35.6, 37.61 29.9, 41.47 25.45 M27.7 41.3 C32.19 36.13, 36.68 30.97, 41.47 25.45 M33.34 40.91 C36.19 37.63, 39.03 34.36, 41.21 31.85 M33.34 40.91 C35.39 38.55, 37.44 36.19, 41.21 31.85 M38.33 41.27 C39.58 39.83, 40.83 38.39, 41.61 37.49 M38.33 41.27 C39.47 39.96, 40.61 38.64, 41.61 37.49" stroke="#ffc9c9" stroke-width="0.5" fill="none"/><path d="M0 0 C10.94 0, 21.89 0, 40 0 M0 0 C9.33 0, 18.66 0, 40 0 M40 0 C40 14.64, 40 29.28, 40 40 M40 0 C40 15.45, 40 30.89, 40 40 M40 40 C27.68 40, 15.36 40, 0 40 M40 40 C25.57 40, 11.14 40, 0 40 M0 40 C0 26.85, 0 13.69, 0 0 M0 40 C0 30.64, 0 21.28, 0 0" stroke="#e03131" stroke-width="1" fill="none"/></g><g stroke-linecap="round" transform="translate(310 310) rotate(0 20 20)"><path d="M0 0 C0 0, 0 0, 0 0 M0 0 C0 0, 0 0, 0 0 M-0.26 6.4 C1.75 4.09, 3.75 1.78, 4.99 0.36 M-0.26 6.4 C1.14 4.78, 2.55 3.17, 4.99 0.36 M0.13 12.04 C4.14 7.43, 8.15 2.82, 10.63 -0.03 M0.13 12.04 C3.43 8.25, 6.73 4.45, 10.63 -0.03 M-0.13 18.44 C3.92 13.79, 7.96 9.13, 15.62 0.33 M-0.13 18.44 C5.75 11.68, 11.63 4.92, 15.62 0.33 M0.27 24.08 C6.76 16.61, 13.26 9.14, 21.26 -0.07 M0.27 24.08 C7.33 15.95, 14.4 7.82, 21.26 -0.07 M0 30.48 C9.29 19.79, 18.58 9.11, 26.25 0.29 M0 30.48 C10.07 18.9, 20.14 7.31, 26.25 0.29 M-0.26 36.88 C9.95 25.14, 20.15 13.4, 31.89 -0.1 M-0.26 36.88 C11.99 22.78, 24.25 8.69, 31.89 -0.1 M1.45 41.01 C9.93 31.26, 18.41 21.5, 36.88 0.26 M1.45 41.01 C11.48 29.47, 21.51 17.93, 36.88 0.26 M6.44 41.37 C15.88 30.51, 25.33 19.64, 41.21 1.37 M6.44 41.37 C17.97 28.1, 29.5 14.84, 41.21 1.37 M12.08 40.98 C20.31 31.51, 28.54 22.05, 41.6 7.01 M12.08 40.98 C19.64 32.28, 27.2 23.59, 41.6 7.01 M17.07 41.34 C22.83 34.7, 28.6 28.07, 41.34 13.41 M17.07 41.34 C23.69 33.72, 30.31 26.1, 41.34 13.41 M22.71 40.94 C27.08 35.92, 31.44 30.9, 41.08 19.81 M22.71 40.94 C27.98 34.89, 33.24 28.83, 41.08 19.81 M27.7 41.3 C31.57 36.85, 35.44 32.4, 41.47 25.45 M27.7 41.3 C31.68 36.72, 35.66 32.14, 41.47 25.45 M33.34 40.91 C35.56 38.36, 37.78 35.8, 41.21 31.85 M33.34 40.91 C36.17 37.65, 39 34.4, 41.21 31.85 M38.33 41.27 C39.2 40.26, 40.08 39.25, 41.61 37.49 M38.33 41.27 C39.19 40.27, 40.06 39.27, 41.61 37.49" stroke="#ffc9c9" stroke-width="0.5" fill="none"/><path d="M0 0 C9.05 0, 18.1 0, 40 0 M0 0 C13.34 0, 26.69 0, 40 0 M40 0 C40 9.58, 40 19.15, 40 40 M40 0 C40 9.29, 40 18.58, 40 40 M40 40 C27.76 40, 15.53 40, 0 40 M40 40 C24.12 40, 8.24 40, 0 40 M0 40 C0 25.39, 0 10.78, 0 0 M0 40 C0 28.72, 0 17.45, 0 0" stroke="#e03131" stroke-width="1" fill="none"/></g><g stroke-linecap="round" transform="translate(110 310) rotate(0 20 20)"><path d="M0 0 C0 0, 0 0, 0 0 M0 0 C0 0, 0 0, 0 0 M-0.26 6.4 C0.83 5.14, 1.92 3.89, 4.99 0.36 M-0.26 6.4 C0.84 5.13, 1.94 3.87, 4.99 0.36 M0.13 12.04 C3.13 8.6, 6.12 5.15, 10.63 -0.03 M0.13 12.04 C2.91 8.84, 5.69 5.64, 10.63 -0.03 M-0.13 18.44 C3.61 14.14, 7.35 9.83, 15.62 0.33 M-0.13 18.44 C4.86 12.7, 9.85 6.96, 15.62 0.33 M0.27 24.08 C6.43 16.99, 12.59 9.9, 21.26 -0.07 M0.27 24.08 C5.35 18.23, 10.44 12.38, 21.26 -0.07 M0 30.48 C9.72 19.3, 19.44 8.12, 26.25 0.29 M0 30.48 C6.07 23.51, 12.13 16.53, 26.25 0.29 M-0.26 36.88 C8.49 26.82, 17.23 16.76, 31.89 -0.1 M-0.26 36.88 C12.11 22.65, 24.48 8.43, 31.89 -0.1 M1.45 41.01 C11.74 29.17, 22.03 17.33, 36.88 0.26 M1.45 41.01 C12.71 28.06, 23.97 15.1, 36.88 0.26 M6.44 41.37 C13.57 33.17, 20.7 24.96, 41.21 1.37 M6.44 41.37 C18.87 27.07, 31.3 12.77, 41.21 1.37 M12.08 40.98 C20.42 31.38, 28.76 21.78, 41.6 7.01 M12.08 40.98 C22.21 29.32, 32.34 17.67, 41.6 7.01 M17.07 41.34 C23.8 33.6, 30.53 25.85, 41.34 13.41 M17.07 41.34 C22.57 35.01, 28.07 28.68, 41.34 13.41 M22.71 40.94 C26.95 36.06, 31.19 31.19, 41.08 19.81 M22.71 40.94 C27.71 35.19, 32.72 29.43, 41.08 19.81 M27.7 41.3 C31.45 36.98, 35.21 32.66, 41.47 25.45 M27.7 41.3 C31.24 37.22, 34.79 33.14, 41.47 25.45 M33.34 40.91 C35.07 38.92, 36.8 36.93, 41.21 31.85 M33.34 40.91 C35.47 38.45, 37.61 36, 41.21 31.85 M38.33 41.27 C39.56 39.85, 40.79 38.43, 41.61 37.49 M38.33 41.27 C39.36 40.08, 40.4 38.89, 41.61 37.49" stroke="#ffc9c9" stroke-width="0.5" fill="none"/><path d="M0 0 C9.54 0, 19.09 0, 40 0 M0 0 C10.62 0, 21.25 0, 40 0 M40 0 C40 12.81, 40 25.61, 40 40 M40 0 C40 14.17, 40 28.33, 40 40 M40 40 C30.31 40, 20.62 40, 0 40 M40 40 C26.32 40, 12.63 40, 0 40 M0 40 C0 24.13, 0 8.26, 0 0 M0 40 C0 26.24, 0 12.48, 0 0" stroke="#e03131" stroke-width="1" fill="none"/></g><g stroke-linecap="round" transform="translate(10 310) rotate(0 20 20)"><path d="M0 0 C0 0, 0 0, 0 0 M0 0 C0 0, 0 0, 0 0 M-0.26 6.4 C1.61 4.24, 3.49 2.08, 4.99 0.36 M-0.26 6.4 C0.85 5.12, 1.97 3.84, 4.99 0.36 M0.13 12.04 C3.74 7.89, 7.34 3.75, 10.63 -0.03 M0.13 12.04 C2.78 9, 5.42 5.96, 10.63 -0.03 M-0.13 18.44 C4.29 13.36, 8.71 8.27, 15.62 0.33 M-0.13 18.44 C4.39 13.24, 8.9 8.05, 15.62 0.33 M0.27 24.08 C5.48 18.09, 10.69 12.09, 21.26 -0.07 M0.27 24.08 C7.48 15.78, 14.7 7.48, 21.26 -0.07 M0 30.48 C5.6 24.05, 11.19 17.61, 26.25 0.29 M0 30.48 C9.51 19.54, 19.02 8.61, 26.25 0.29 M-0.26 36.88 C7.12 28.39, 14.5 19.9, 31.89 -0.1 M-0.26 36.88 C12.42 22.3, 25.09 7.72, 31.89 -0.1 M1.45 41.01 C9.93 31.26, 18.41 21.5, 36.88 0.26 M1.45 41.01 C8.68 32.69, 15.91 24.37, 36.88 0.26 M6.44 41.37 C15.89 30.5, 25.33 19.63, 41.21 1.37 M6.44 41.37 C15.79 30.61, 25.14 19.86, 41.21 1.37 M12.08 40.98 C19.27 32.7, 26.46 24.43, 41.6 7.01 M12.08 40.98 C23.24 28.14, 34.4 15.3, 41.6 7.01 M17.07 41.34 C25.79 31.31, 34.5 21.28, 41.34 13.41 M17.07 41.34 C22.74 34.82, 28.41 28.29, 41.34 13.41 M22.71 40.94 C28.41 34.38, 34.11 27.83, 41.08 19.81 M22.71 40.94 C27.3 35.66, 31.89 30.39, 41.08 19.81 M27.7 41.3 C31.5 36.92, 35.31 32.55, 41.47 25.45 M27.7 41.3 C32.57 35.7, 37.44 30.09, 41.47 25.45 M33.34 40.91 C35.89 37.97, 38.44 35.04, 41.21 31.85 M33.34 40.91 C36.37 37.42, 39.4 33.94, 41.21 31.85 M38.33 41.27 C39.01 40.49, 39.69 39.7, 41.61 37.49 M38.33 41.27 C39.29 40.15, 40.26 39.04, 41.61 37.49" stroke="#ffc9c9" stroke-width="0.5" fill="none"/><path d="M0 0 C9.78 0, 19.56 0, 40 0 M0 0 C10.88 0, 21.76 0, 40 0 M40 0 C40 8.07, 40 16.13, 40 40 M40 0 C40 8.12, 40 16.24, 40 40 M40 40 C30.96 40, 21.92 40, 0 40 M40 40 C28.73 40, 17.46 40, 0 40 M0 40 C0 25.63, 0 11.26, 0 0 M0 40 C0 25.09, 0 10.18, 0 0" stroke="#e03131" stroke-width="1" fill="none"/></g><g mask="url(#mask-lru8MNc_FJ6WORqubtM-S)" stroke-linecap="round"><g transform="translate(367.66666666666663 51) rotate(0 -68.37376081832431 29.303040350710376)"><path d="M0 0 C-32.48 13.92, -64.96 27.84, -136.75 58.61 M0 0 C-43.32 18.56, -86.64 37.13, -136.75 58.61" stroke="#1e1e1e" stroke-width="1" fill="none"/></g><g transform="translate(367.66666666666663 51) rotate(0 -68.37376081832431 29.303040350710376)"><path d="M-136.75 58.61 L-126.75 47.42 L-121.75 59.08 L-136.75 58.61" stroke="none" stroke-width="0" fill="#1e1e1e" fill-rule="evenodd"/><path d="M-136.75 58.61 C-134.37 55.95, -132 53.29, -126.75 47.42 M-136.75 58.61 C-133.58 55.06, -130.41 51.52, -126.75 47.42 M-126.75 47.42 C-125.28 50.85, -123.82 54.27, -121.75 59.08 M-126.75 47.42 C-125.54 50.25, -124.33 53.07, -121.75 59.08 M-121.75 59.08 C-127.31 58.9, -132.86 58.73, -136.75 58.61 M-121.75 59.08 C-125.22 58.97, -128.68 58.86, -136.75 58.61 M-136.75 58.61 C-136.75 58.61, -136.75 58.61, -136.75 58.61 M-136.75 58.61 C-136.75 58.61, -136.75 58.61, -136.75 58.61" stroke="#1e1e1e" stroke-width="1" fill="none"/></g></g><mask id="mask-lru8MNc_FJ6WORqubtM-S"><rect x="0" y="0" fill="#fff" width="604.4141883033153" height="209.60608070142075"/><rect x="293.73138241084234" y="68.80304035071038" fill="#000" width="11.123046875" height="23" opacity="1"/></mask><g transform="translate(293.73138241084234 68.80304035071038) rotate(0 5.5615234375 11.5)"><text x="5.5615234375" y="0" font-family="Helvetica, Segoe UI Emoji" font-size="20px" fill="#1e1e1e" text-anchor="middle" style="white-space: pre;" direction="ltr" dominant-baseline="text-before-edge">0</text></g><g mask="url(#mask-rC1-vvpyb2wIRzAeYGsU_)" stroke-linecap="round"><g transform="translate(392.3333333333333 51) rotate(0 68.37376081832431 29.303040350710376)"><path d="M0 0 C29.32 12.57, 58.64 25.13, 136.75 58.61 M0 0 C46.46 19.91, 92.92 39.82, 136.75 58.61" stroke="#1e1e1e" stroke-width="1" fill="none"/></g><g transform="translate(392.3333333333333 51) rotate(0 68.37376081832431 29.303040350710376)"><path d="M136.75 58.61 L121.75 59.08 L126.75 47.42 L136.75 58.61" stroke="none" stroke-width="0" fill="#1e1e1e" fill-rule="evenodd"/><path d="M136.75 58.61 C133.53 58.71, 130.32 58.81, 121.75 59.08 M136.75 58.61 C131.65 58.77, 126.56 58.93, 121.75 59.08 M121.75 59.08 C123.53 54.93, 125.31 50.78, 126.75 47.42 M121.75 59.08 C123.43 55.17, 125.1 51.26, 126.75 47.42 M126.75 47.42 C129.04 49.99, 131.33 52.55, 136.75 58.61 M126.75 47.42 C129.64 50.66, 132.54 53.9, 136.75 58.61 M136.75 58.61 C136.75 58.61, 136.75 58.61, 136.75 58.61 M136.75 58.61 C136.75 58.61, 136.75 58.61, 136.75 58.61" stroke="#1e1e1e" stroke-width="1" fill="none"/></g></g><mask id="mask-rC1-vvpyb2wIRzAeYGsU_"><rect x="0" y="0" fill="#fff" width="629.0808549699819" height="209.60608070142075"/><rect x="455.1455707141576" y="68.80304035071038" fill="#000" width="11.123046875" height="23" opacity="1"/></mask><g transform="translate(455.14557071415766 68.80304035071038) rotate(0 5.561523437500014 11.5)"><text x="5.5615234375" y="0" font-family="Helvetica, Segoe UI Emoji" font-size="20px" fill="#1e1e1e" text-anchor="middle" style="white-space: pre;" direction="ltr" dominant-baseline="text-before-edge">1</text></g><g mask="url(#mask-FhJTJGGuHcIeOWyKPJH4C)" stroke-linecap="round"><g transform="translate(168.33333333333337 151) rotate(0 -48.333333333333314 29)"><path d="M0 0 C-30.35 18.21, -60.7 36.42, -96.67 58 M0 0 C-30.7 18.42, -61.4 36.84, -96.67 58" stroke="#1e1e1e" stroke-width="1" fill="none"/></g><g transform="translate(168.33333333333337 151) rotate(0 -48.333333333333314 29)"><path d="M-96.67 58 L-88.27 45.57 L-81.75 56.44 L-96.67 58" stroke="none" stroke-width="0" fill="#1e1e1e" fill-rule="evenodd"/><path d="M-96.67 58 C-94.03 54.1, -91.4 50.2, -88.27 45.57 M-96.67 58 C-94 54.05, -91.33 50.1, -88.27 45.57 M-88.27 45.57 C-86.59 48.38, -84.9 51.18, -81.75 56.44 M-88.27 45.57 C-85.84 49.62, -83.41 53.67, -81.75 56.44 M-81.75 56.44 C-86.7 56.96, -91.65 57.48, -96.67 58 M-81.75 56.44 C-87.63 57.06, -93.51 57.67, -96.67 58 M-96.67 58 C-96.67 58, -96.67 58, -96.67 58 M-96.67 58 C-96.67 58, -96.67 58, -96.67 58" stroke="#1e1e1e" stroke-width="1" fill="none"/></g></g><mask id="mask-FhJTJGGuHcIeOWyKPJH4C"><rect x="0" y="0" fill="#fff" width="365" height="309"/><rect x="114.43847656250006" y="168.5" fill="#000" width="11.123046875" height="23" opacity="1"/></mask><g transform="translate(114.43847656250006 168.5) rotate(0 5.5615234375 11.5)"><text x="5.5615234375" y="0" font-family="Helvetica, Segoe UI Emoji" font-size="20px" fill="#1e1e1e" text-anchor="middle" style="white-space: pre;" direction="ltr" dominant-baseline="text-before-edge">0</text></g><g mask="url(#mask-CParF6IGj3Ttwqz4DQEq5)" stroke-linecap="round"><g transform="translate(191.66666666666663 151) rotate(0 48.333333333333336 29)"><path d="M0 0 C29.38 17.63, 58.76 35.25, 96.67 58 M0 0 C35.32 21.19, 70.64 42.38, 96.67 58" stroke="#1e1e1e" stroke-width="1" fill="none"/></g><g transform="translate(191.66666666666663 151) rotate(0 48.333333333333336 29)"><path d="M96.67 58 L81.75 56.44 L88.27 45.57 L96.67 58" stroke="none" stroke-width="0" fill="#1e1e1e" fill-rule="evenodd"/><path d="M96.67 58 C92.13 57.53, 87.6 57.05, 81.75 56.44 M96.67 58 C91.22 57.43, 85.77 56.86, 81.75 56.44 M81.75 56.44 C83.17 54.07, 84.59 51.7, 88.27 45.57 M81.75 56.44 C83.19 54.04, 84.63 51.64, 88.27 45.57 M88.27 45.57 C91.01 49.63, 93.76 53.69, 96.67 58 M88.27 45.57 C91.53 50.39, 94.79 55.22, 96.67 58 M96.67 58 C96.67 58, 96.67 58, 96.67 58 M96.67 58 C96.67 58, 96.67 58, 96.67 58" stroke="#1e1e1e" stroke-width="1" fill="none"/></g></g><mask id="mask-CParF6IGj3Ttwqz4DQEq5"><rect x="0" y="0" fill="#fff" width="388.3333333333333" height="309"/><rect x="234.43847656249997" y="168.5" fill="#000" width="11.123046875" height="23" opacity="1"/></mask><g transform="translate(234.43847656249997 168.5) rotate(0 5.561523437499993 11.5)"><text x="5.5615234375" y="0" font-family="Helvetica, Segoe UI Emoji" font-size="20px" fill="#1e1e1e" text-anchor="middle" style="white-space: pre;" direction="ltr" dominant-baseline="text-before-edge">1</text></g><g mask="url(#mask-ouErZw_LD41zJ8EBdNigf)" stroke-linecap="round"><g transform="translate(573.1639344262295 151) rotate(0 -22.34426229508196 29)"><path d="M0 0 C-10.13 13.14, -20.25 26.28, -44.69 58 M0 0 C-10.32 13.39, -20.63 26.78, -44.69 58" stroke="#1e1e1e" stroke-width="1" fill="none"/></g><g transform="translate(573.1639344262295 151) rotate(0 -22.34426229508196 29)"><path d="M-44.69 58 L-41.41 43.36 L-31.37 51.1 L-44.69 58" stroke="none" stroke-width="0" fill="#1e1e1e" fill-rule="evenodd"/><path d="M-44.69 58 C-43.95 54.68, -43.2 51.37, -41.41 43.36 M-44.69 58 C-43.93 54.62, -43.18 51.24, -41.41 43.36 M-41.41 43.36 C-38.68 45.47, -35.94 47.58, -31.37 51.1 M-41.41 43.36 C-38.67 45.47, -35.94 47.58, -31.37 51.1 M-31.37 51.1 C-34.8 52.88, -38.23 54.65, -44.69 58 M-31.37 51.1 C-34.3 52.62, -37.22 54.13, -44.69 58 M-44.69 58 C-44.69 58, -44.69 58, -44.69 58 M-44.69 58 C-44.69 58, -44.69 58, -44.69 58" stroke="#1e1e1e" stroke-width="1" fill="none"/></g></g><mask id="mask-ouErZw_LD41zJ8EBdNigf"><rect x="0" y="0" fill="#fff" width="717.8524590163934" height="309"/><rect x="545.2581486936475" y="168.5" fill="#000" width="11.123046875" height="23" opacity="1"/></mask><g transform="translate(545.2581486936475 168.5) rotate(0 5.5615234375 11.5)"><text x="5.5615234375" y="0" font-family="Helvetica, Segoe UI Emoji" font-size="20px" fill="#1e1e1e" text-anchor="middle" style="white-space: pre;" direction="ltr" dominant-baseline="text-before-edge">0</text></g><g mask="url(#mask-EMNK-l08FVzuJFMnCK3Ge)" stroke-linecap="round"><g transform="translate(586.8360655737705 151) rotate(0 22.34426229508196 29)"><path d="M0 0 C17.07 22.16, 34.15 44.32, 44.69 58 M0 0 C12.12 15.73, 24.24 31.46, 44.69 58" stroke="#1e1e1e" stroke-width="1" fill="none"/></g><g transform="translate(586.8360655737705 151) rotate(0 22.34426229508196 29)"><path d="M44.69 58 L31.37 51.1 L41.41 43.36 L44.69 58" stroke="none" stroke-width="0" fill="#1e1e1e" fill-rule="evenodd"/><path d="M44.69 58 C39.6 55.36, 34.51 52.73, 31.37 51.1 M44.69 58 C41.08 56.13, 37.46 54.26, 31.37 51.1 M31.37 51.1 C33.76 49.26, 36.15 47.41, 41.41 43.36 M31.37 51.1 C34.25 48.88, 37.12 46.67, 41.41 43.36 M41.41 43.36 C42.36 47.59, 43.31 51.82, 44.69 58 M41.41 43.36 C42.18 46.79, 42.95 50.23, 44.69 58 M44.69 58 C44.69 58, 44.69 58, 44.69 58 M44.69 58 C44.69 58, 44.69 58, 44.69 58" stroke="#1e1e1e" stroke-width="1" fill="none"/></g></g><mask id="mask-EMNK-l08FVzuJFMnCK3Ge"><rect x="0" y="0" fill="#fff" width="731.5245901639344" height="309"/><rect x="603.6188044313525" y="168.5" fill="#000" width="11.123046875" height="23" opacity="1"/></mask><g transform="translate(603.6188044313525 168.5) rotate(0 5.561523437499972 11.5)"><text x="5.5615234375" y="0" font-family="Helvetica, Segoe UI Emoji" font-size="20px" fill="#1e1e1e" text-anchor="middle" style="white-space: pre;" direction="ltr" dominant-baseline="text-before-edge">1</text></g><g mask="url(#mask-YD6EBapsESde1bNJsRW6b)" stroke-linecap="round"><g transform="translate(73.1639344262295 251) rotate(0 -22.34426229508196 29)"><path d="M0 0 C-13.2 17.13, -26.4 34.26, -44.69 58 M0 0 C-9.35 12.13, -18.69 24.26, -44.69 58" stroke="#1e1e1e" stroke-width="1" fill="none"/></g><g transform="translate(73.1639344262295 251) rotate(0 -22.34426229508196 29)"><path d="M-44.69 58 L-41.41 43.36 L-31.37 51.1 L-44.69 58" stroke="none" stroke-width="0" fill="#1e1e1e" fill-rule="evenodd"/><path d="M-44.69 58 C-43.72 53.68, -42.75 49.35, -41.41 43.36 M-44.69 58 C-44 54.94, -43.32 51.88, -41.41 43.36 M-41.41 43.36 C-39.15 45.11, -36.89 46.85, -31.37 51.1 M-41.41 43.36 C-37.85 46.1, -34.29 48.85, -31.37 51.1 M-31.37 51.1 C-35.76 53.37, -40.14 55.65, -44.69 58 M-31.37 51.1 C-35.07 53.02, -38.77 54.94, -44.69 58 M-44.69 58 C-44.69 58, -44.69 58, -44.69 58 M-44.69 58 C-44.69 58, -44.69 58, -44.69 58" stroke="#1e1e1e" stroke-width="1" fill="none"/></g></g><mask id="mask-YD6EBapsESde1bNJsRW6b"><rect x="0" y="0" fill="#fff" width="217.85245901639342" height="409"/><rect x="45.25814869364751" y="268.5" fill="#000" width="11.123046875" height="23" opacity="1"/></mask><g transform="translate(45.25814869364751 268.5) rotate(0 5.561523437500028 11.5)"><text x="5.5615234375" y="0" font-family="Helvetica, Segoe UI Emoji" font-size="20px" fill="#1e1e1e" text-anchor="middle" style="white-space: pre;" direction="ltr" dominant-baseline="text-before-edge">0</text></g><g mask="url(#mask-zl8jpJip5RZyrukm1NhyV)" stroke-linecap="round"><g transform="translate(86.8360655737705 251) rotate(0 22.34426229508196 29)"><path d="M0 0 C13.14 17.05, 26.28 34.11, 44.69 58 M0 0 C9.72 12.61, 19.44 25.22, 44.69 58" stroke="#1e1e1e" stroke-width="1" fill="none"/></g><g transform="translate(86.8360655737705 251) rotate(0 22.34426229508196 29)"><path d="M44.69 58 L31.37 51.1 L41.41 43.36 L44.69 58" stroke="none" stroke-width="0" fill="#1e1e1e" fill-rule="evenodd"/><path d="M44.69 58 C40.77 55.97, 36.86 53.94, 31.37 51.1 M44.69 58 C41.79 56.5, 38.9 55, 31.37 51.1 M31.37 51.1 C35.17 48.17, 38.97 45.24, 41.41 43.36 M31.37 51.1 C35.16 48.18, 38.94 45.27, 41.41 43.36 M41.41 43.36 C42.69 49.07, 43.97 54.77, 44.69 58 M41.41 43.36 C42.24 47.08, 43.08 50.8, 44.69 58 M44.69 58 C44.69 58, 44.69 58, 44.69 58 M44.69 58 C44.69 58, 44.69 58, 44.69 58" stroke="#1e1e1e" stroke-width="1" fill="none"/></g></g><mask id="mask-zl8jpJip5RZyrukm1NhyV"><rect x="0" y="0" fill="#fff" width="231.52459016393442" height="409"/><rect x="103.61880443135246" y="268.5" fill="#000" width="11.123046875" height="23" opacity="1"/></mask><g transform="translate(103.61880443135246 268.5) rotate(0 5.5615234375 11.5)"><text x="5.5615234375" y="0" font-family="Helvetica, Segoe UI Emoji" font-size="20px" fill="#1e1e1e" text-anchor="middle" style="white-space: pre;" direction="ltr" dominant-baseline="text-before-edge">1</text></g><g mask="url(#mask-QzU1-LQ_5BKYzwdVkdX_Y)" stroke-linecap="round"><g transform="translate(273.1639344262295 251) rotate(0 -22.344262295081982 28.99999999999997)"><path d="M0 0 C-9.27 12.03, -18.53 24.05, -44.69 58 M0 0 C-13.18 17.11, -26.36 34.22, -44.69 58" stroke="#1e1e1e" stroke-width="1" fill="none"/></g><g transform="translate(273.1639344262295 251) rotate(0 -22.344262295081982 28.99999999999997)"><path d="M-44.69 58 L-41.41 43.36 L-31.37 51.1 L-44.69 58" stroke="none" stroke-width="0" fill="#1e1e1e" fill-rule="evenodd"/><path d="M-44.69 58 C-44.01 54.96, -43.33 51.93, -41.41 43.36 M-44.69 58 C-43.72 53.68, -42.76 49.36, -41.41 43.36 M-41.41 43.36 C-37.71 46.21, -34.01 49.07, -31.37 51.1 M-41.41 43.36 C-37.91 46.06, -34.41 48.76, -31.37 51.1 M-31.37 51.1 C-35.86 53.42, -40.34 55.75, -44.69 58 M-31.37 51.1 C-35.67 53.33, -39.97 55.56, -44.69 58 M-44.69 58 C-44.69 58, -44.69 58, -44.69 58 M-44.69 58 C-44.69 58, -44.69 58, -44.69 58" stroke="#1e1e1e" stroke-width="1" fill="none"/></g></g><mask id="mask-QzU1-LQ_5BKYzwdVkdX_Y"><rect x="0" y="0" fill="#fff" width="417.8524590163935" height="408.99999999999994"/><rect x="245.2581486936475" y="268.5" fill="#000" width="11.123046875" height="23" opacity="1"/></mask><g transform="translate(245.2581486936475 268.5) rotate(0 5.561523437499993 11.499999999999972)"><text x="5.5615234375" y="0" font-family="Helvetica, Segoe UI Emoji" font-size="20px" fill="#1e1e1e" text-anchor="middle" style="white-space: pre;" direction="ltr" dominant-baseline="text-before-edge">0</text></g><g mask="url(#mask-qTqHwRzw_pn-yBx7O2l0Z)" stroke-linecap="round"><g transform="translate(286.8360655737705 251) rotate(0 22.344262295081972 28.99999999999997)"><path d="M0 0 C12.76 16.56, 25.52 33.12, 44.69 58 M0 0 C12.38 16.06, 24.76 32.13, 44.69 58" stroke="#1e1e1e" stroke-width="1" fill="none"/></g><g transform="translate(286.8360655737705 251) rotate(0 22.344262295081972 28.99999999999997)"><path d="M44.69 58 L31.37 51.1 L41.41 43.36 L44.69 58" stroke="none" stroke-width="0" fill="#1e1e1e" fill-rule="evenodd"/><path d="M44.69 58 C40.89 56.03, 37.08 54.06, 31.37 51.1 M44.69 58 C41 56.09, 37.31 54.18, 31.37 51.1 M31.37 51.1 C34.23 48.9, 37.09 46.69, 41.41 43.36 M31.37 51.1 C35.33 48.05, 39.29 45, 41.41 43.36 M41.41 43.36 C42.57 48.53, 43.73 53.69, 44.69 58 M41.41 43.36 C42.43 47.93, 43.46 52.5, 44.69 58 M44.69 58 C44.69 58, 44.69 58, 44.69 58 M44.69 58 C44.69 58, 44.69 58, 44.69 58" stroke="#1e1e1e" stroke-width="1" fill="none"/></g></g><mask id="mask-qTqHwRzw_pn-yBx7O2l0Z"><rect x="0" y="0" fill="#fff" width="431.5245901639345" height="408.99999999999994"/><rect x="303.61880443135243" y="268.5" fill="#000" width="11.123046875" height="23" opacity="1"/></mask><g transform="translate(303.61880443135243 268.5) rotate(0 5.5615234375 11.499999999999972)"><text x="5.5615234375" y="0" font-family="Helvetica, Segoe UI Emoji" font-size="20px" fill="#1e1e1e" text-anchor="middle" style="white-space: pre;" direction="ltr" dominant-baseline="text-before-edge">1</text></g></svg>